<mxfile host="app.diagrams.net" modified="2023-01-19T17:38:13.872Z" agent="5.0 (Macintosh; Intel Mac OS X 10_15_7) AppleWebKit/537.36 (KHTML, like Gecko) Chrome/108.0.0.0 Safari/537.36" etag="Fdla83sJ-2HHAaXDl4Kr" version="20.8.7" type="github">
  <diagram id="eSQL2V70leg6OyjtACmR" name="Page-1">
    <mxGraphModel dx="2074" dy="1101" grid="1" gridSize="10" guides="1" tooltips="1" connect="1" arrows="1" fold="1" page="1" pageScale="1" pageWidth="850" pageHeight="1100" math="0" shadow="0">
      <root>
        <mxCell id="0" />
        <mxCell id="1" parent="0" />
        <mxCell id="Zo_HH0TLs52sVe4Dv-Wm-1" value="Laptop" style="rounded=1;whiteSpace=wrap;html=1;fillColor=#dae8fc;strokeColor=#6c8ebf;strokeWidth=2;" parent="1" vertex="1">
          <mxGeometry x="190" y="290" width="90" height="40" as="geometry" />
        </mxCell>
        <mxCell id="Zo_HH0TLs52sVe4Dv-Wm-3" value="Beetle" style="rounded=1;whiteSpace=wrap;html=1;fillColor=#ffe6cc;strokeColor=#d79b00;strokeWidth=2;" parent="1" vertex="1">
          <mxGeometry x="440" y="290" width="90" height="40" as="geometry" />
        </mxCell>
        <mxCell id="Zo_HH0TLs52sVe4Dv-Wm-4" value="" style="endArrow=none;html=1;rounded=0;entryX=0.5;entryY=1;entryDx=0;entryDy=0;strokeWidth=2;" parent="1" target="Zo_HH0TLs52sVe4Dv-Wm-1" edge="1">
          <mxGeometry width="50" height="50" relative="1" as="geometry">
            <mxPoint x="235" y="640" as="sourcePoint" />
            <mxPoint x="430" y="540" as="targetPoint" />
          </mxGeometry>
        </mxCell>
        <mxCell id="Zo_HH0TLs52sVe4Dv-Wm-5" value="" style="endArrow=none;html=1;rounded=0;entryX=0.5;entryY=1;entryDx=0;entryDy=0;strokeWidth=2;" parent="1" edge="1">
          <mxGeometry width="50" height="50" relative="1" as="geometry">
            <mxPoint x="485" y="640" as="sourcePoint" />
            <mxPoint x="484.5" y="330" as="targetPoint" />
          </mxGeometry>
        </mxCell>
        <mxCell id="Zo_HH0TLs52sVe4Dv-Wm-6" value="" style="endArrow=classic;html=1;rounded=0;strokeColor=#6c8ebf;strokeWidth=2;" parent="1" edge="1">
          <mxGeometry width="50" height="50" relative="1" as="geometry">
            <mxPoint x="235" y="370" as="sourcePoint" />
            <mxPoint x="485" y="430" as="targetPoint" />
          </mxGeometry>
        </mxCell>
        <mxCell id="Zo_HH0TLs52sVe4Dv-Wm-7" value="&lt;font style=&quot;font-size: 20px;&quot;&gt;HELLO&lt;br&gt;&lt;/font&gt;" style="edgeLabel;html=1;align=center;verticalAlign=middle;resizable=0;points=[];rotation=15;" parent="Zo_HH0TLs52sVe4Dv-Wm-6" vertex="1" connectable="0">
          <mxGeometry relative="1" as="geometry">
            <mxPoint x="10" y="-13" as="offset" />
          </mxGeometry>
        </mxCell>
        <mxCell id="Zo_HH0TLs52sVe4Dv-Wm-8" value="" style="endArrow=classic;html=1;rounded=0;fontSize=20;strokeColor=#d89b01;strokeWidth=2;" parent="1" edge="1">
          <mxGeometry width="50" height="50" relative="1" as="geometry">
            <mxPoint x="485" y="450" as="sourcePoint" />
            <mxPoint x="235" y="510" as="targetPoint" />
          </mxGeometry>
        </mxCell>
        <mxCell id="Zo_HH0TLs52sVe4Dv-Wm-10" value="ACK" style="edgeLabel;html=1;align=center;verticalAlign=middle;resizable=0;points=[];fontSize=20;rotation=345;" parent="Zo_HH0TLs52sVe4Dv-Wm-8" vertex="1" connectable="0">
          <mxGeometry x="-0.1658" y="-3" relative="1" as="geometry">
            <mxPoint x="-20" y="-7" as="offset" />
          </mxGeometry>
        </mxCell>
        <mxCell id="Zo_HH0TLs52sVe4Dv-Wm-11" value="" style="endArrow=classic;html=1;rounded=0;strokeWidth=2;strokeColor=#6c8ebf;" parent="1" edge="1">
          <mxGeometry width="50" height="50" relative="1" as="geometry">
            <mxPoint x="235" y="536" as="sourcePoint" />
            <mxPoint x="485" y="596" as="targetPoint" />
          </mxGeometry>
        </mxCell>
        <mxCell id="Zo_HH0TLs52sVe4Dv-Wm-12" value="&lt;font style=&quot;font-size: 20px;&quot;&gt;ACK&lt;/font&gt;" style="edgeLabel;html=1;align=center;verticalAlign=middle;resizable=0;points=[];rotation=15;" parent="Zo_HH0TLs52sVe4Dv-Wm-11" vertex="1" connectable="0">
          <mxGeometry relative="1" as="geometry">
            <mxPoint x="10" y="-13" as="offset" />
          </mxGeometry>
        </mxCell>
      </root>
    </mxGraphModel>
  </diagram>
</mxfile>
